<svg xmlns="http://www.w3.org/2000/svg" id="Layer_1" data-name="Layer 1" viewBox="0 0 475.18 106.78" version="1.1"><defs id="defs360"><style id="style358">.cls-2{fill:#035c6e}.cls-3{fill:#91d6e6}</style></defs><path class="cls-2" d="M122.08 40.18L84.82 77.44a26.39 26.39 0 0037.26-37.26" id="path364"/><path class="cls-3" d="M128.84 29.26L91.58 66.52a26.39 26.39 0 0137.26-37.26" id="path366"/><path class="cls-2" d="M69.34 40.18L32.08 77.44a26.39 26.39 0 0037.26-37.26" id="path368"/><path class="cls-3" d="M67.26 38.1L30 75.36A26.39 26.39 0 0167.26 38.1" id="path370"/><path class="cls-2" d="M160.3 44.73a8.79 8.79 0 01-.64 3.42 7.7 7.7 0 01-4.52 4.35 10 10 0 01-6.83 0 8.09 8.09 0 01-2.72-1.7 7.9 7.9 0 01-1.79-2.65 8.79 8.79 0 01-.64-3.42 8.67 8.67 0 01.64-3.41 7.56 7.56 0 011.79-2.59 8.13 8.13 0 012.72-1.65 10.52 10.52 0 016.83 0 8 8 0 012.73 1.65 7.56 7.56 0 011.79 2.59 8.67 8.67 0 01.64 3.41zm-4.07 0a5.488 5.488 0 00-.33-1.91 4.55 4.55 0 00-.9-1.52 4.29 4.29 0 00-1.43-1 4.37 4.37 0 00-1.83-.37 4.29 4.29 0 00-1.82.37 4.39 4.39 0 00-1.43 1 4.24 4.24 0 00-.92 1.52 5.47 5.47 0 00-.32 1.91c-.011.681.1 1.359.33 2a4.69 4.69 0 00.92 1.55c.4.428.883.768 1.42 1a4.48 4.48 0 005.07-1c.41-.45.727-.976.93-1.55a5.66 5.66 0 00.31-2zm19.4-2.95a4.82 4.82 0 01-.51 2.32 4.13 4.13 0 01-1.38 1.52 6.1 6.1 0 01-2 .85 10.23 10.23 0 01-2.36.27h-1.89v5.93h-3.8V36.93h5.78c.81-.007 1.618.077 2.41.25a5.69 5.69 0 012 .83 4 4 0 011.31 1.49 4.87 4.87 0 01.44 2.28zm-3.8 0a1.66 1.66 0 00-.23-.91 1.54 1.54 0 00-.6-.56 2.82 2.82 0 00-.85-.27 8 8 0 00-1-.06h-1.67v3.71h1.6c.335 0 .67-.03 1-.09a2.7 2.7 0 00.88-.31 1.65 1.65 0 00.61-.59 1.72 1.72 0 00.26-.9zm6.62 10.89V36.93H189v3.2h-6.92v3h6.54v3h-6.54v3.27h7.32v3.24zm24.55 0l-6.34-10.29h-.07l.09 10.29H193V36.93h4.34l6.31 10.27h.07l-.09-10.27h3.69v15.74zM226.22 41a3.51 3.51 0 00-1.22-1 3.72 3.72 0 00-1.53-.37 5.12 5.12 0 00-.77.07 1.91 1.91 0 00-.7.26 1.83 1.83 0 00-.52.48 1.34 1.34 0 00-.21.77 1.26 1.26 0 00.17.67c.125.193.292.353.49.47a4.5 4.5 0 00.76.36l1 .35c.54.18 1.09.37 1.67.59a6.15 6.15 0 011.58.85c.479.36.88.812 1.18 1.33a3.8 3.8 0 01.47 2 5.18 5.18 0 01-.5 2.34 4.82 4.82 0 01-1.35 1.64 5.62 5.62 0 01-1.93.95 8.09 8.09 0 01-2.25.31 9.1 9.1 0 01-3.27-.59 6.9 6.9 0 01-2.62-1.67l2.49-2.54a4.48 4.48 0 001.52 1.19 4.13 4.13 0 001.88.48c.276 0 .55-.03.82-.09a2.11 2.11 0 00.7-.29 1.45 1.45 0 00.48-.53 1.69 1.69 0 00.18-.8 1.26 1.26 0 00-.22-.76 2.12 2.12 0 00-.64-.57 4.9 4.9 0 00-1-.46c-.41-.14-.87-.3-1.39-.46a13.35 13.35 0 01-1.48-.58 5.15 5.15 0 01-1.29-.85 4 4 0 01-.91-1.27 4.3 4.3 0 01-.35-1.81 4.41 4.41 0 01.54-2.25 4.6 4.6 0 011.4-1.54 5.9 5.9 0 012-.87 8.62 8.62 0 012.2-.28 8 8 0 012.72.49 7 7 0 012.44 1.44zm12.84-.82v12.49h-3.81V40.18h-4.44v-3.25h12.69v3.25zm16.43 12.49l-1.22-3.09h-6.1L247 52.67h-4.14l6.61-15.74h3.69l6.54 15.74zm-4.22-11.54l-2 5.41h4zm16.05-.95v12.49h-3.8V40.18h-4.45v-3.25h12.7v3.25zm7.01 12.49V36.93h10.59v3.2H278v3h6.54v3H278v3.27h7.32v3.24zm21.01-15.74h10.16v2.44h-7.36v4.32h6.94v2.36h-6.94v6.62h-2.8zM308 44.76a8.91 8.91 0 01.63-3.42 7.48 7.48 0 011.76-2.59 7.73 7.73 0 012.61-1.64 9.43 9.43 0 013.37-.58 9.59 9.59 0 013.4.58 7.82 7.82 0 012.69 1.64 7.37 7.37 0 011.77 2.59 8.91 8.91 0 01.63 3.42 8.76 8.76 0 01-.63 3.37 7.68 7.68 0 01-1.77 2.62 8 8 0 01-2.69 1.71 9.18 9.18 0 01-3.4.61 9 9 0 01-3.37-.61 7.89 7.89 0 01-2.67-1.71 7.8 7.8 0 01-1.76-2.62 8.76 8.76 0 01-.57-3.37zm3 0c-.009.79.123 1.576.39 2.32a5.29 5.29 0 001.12 1.84 5.21 5.21 0 001.71 1.21 5.38 5.38 0 002.19.43 5.47 5.47 0 002.2-.43 5.15 5.15 0 001.72-1.21 5.29 5.29 0 001.12-1.84c.267-.744.4-1.53.39-2.32a6.408 6.408 0 00-.39-2.27 5.62 5.62 0 00-1.1-1.83 5.23 5.23 0 00-3.93-1.66 5.26 5.26 0 00-2.21.44 5.39 5.39 0 00-1.71 1.22 5.62 5.62 0 00-1.1 1.83 6.4 6.4 0 00-.4 2.27zm30 2.13a6.4 6.4 0 01-.49 2.57 5.82 5.82 0 01-1.33 1.95 6 6 0 01-2 1.23 7.57 7.57 0 01-5 0 6 6 0 01-2-1.23 5.7 5.7 0 01-1.34-1.95 6.76 6.76 0 01-.47-2.57v-10h2.8v9.85c0 .463.06.923.18 1.37.108.44.31.853.59 1.21.287.375.66.674 1.09.87a4.42 4.42 0 003.35 0 2.88 2.88 0 001.09-.87 3.33 3.33 0 00.59-1.21c.12-.447.18-.907.18-1.37v-9.81H341zm4.24-9.96H349l7.31 11.79h.05V36.93h2.8v15.74h-3.56l-7.47-12.16v12.16h-2.8zm18.26 0h5.58c1.043 0 2.081.134 3.09.4a8.17 8.17 0 012.83 1.32 7 7 0 012 2.43 8 8 0 01.78 3.72 7.57 7.57 0 01-.78 3.56 7.36 7.36 0 01-2 2.45 8.74 8.74 0 01-2.81 1.41 11 11 0 01-3.09.45h-5.6zm5.14 13.3a9.552 9.552 0 002.18-.26 5.73 5.73 0 002-.87 4.62 4.62 0 001.43-1.65 5.62 5.62 0 00.56-2.65 6 6 0 00-.56-2.76 4.49 4.49 0 00-1.43-1.66 5.31 5.31 0 00-2-.83 10.75 10.75 0 00-2.18-.22h-2.34v10.9zm16.94-13.3H388l6.78 15.74h-3.2l-1.47-3.6h-6.83l-1.42 3.6h-3.13zm3.56 9.74l-2.42-6.41-2.47 6.41zm9.79-7.3h-4.83v-2.44h12.46v2.44h-4.83v13.3h-2.8zm10.3-2.44H412v15.74h-2.8zm6.4 7.83a8.72 8.72 0 01.64-3.42 7.46 7.46 0 011.73-2.59 7.73 7.73 0 012.67-1.64 9.43 9.43 0 013.37-.58 9.56 9.56 0 013.4.58 7.72 7.72 0 012.69 1.64 7.37 7.37 0 011.77 2.59 8.72 8.72 0 01.64 3.42 8.58 8.58 0 01-.64 3.37 7.68 7.68 0 01-1.77 2.62 7.88 7.88 0 01-2.69 1.71 9.14 9.14 0 01-3.4.61 9 9 0 01-3.37-.61 7.89 7.89 0 01-2.67-1.71 7.78 7.78 0 01-1.75-2.62 8.58 8.58 0 01-.62-3.37zm3.05 0c-.009.79.123 1.576.39 2.32a5.42 5.42 0 001.11 1.84 5.21 5.21 0 001.71 1.21 5.38 5.38 0 002.19.43 5.51 5.51 0 002.21-.43 5.25 5.25 0 001.71-1.21 5.42 5.42 0 001.11-1.84c.267-.744.4-1.53.39-2.32a6.408 6.408 0 00-.39-2.27 5.62 5.62 0 00-1.1-1.83 5.19 5.19 0 00-3.93-1.66 5.14 5.14 0 00-3.91 1.66 5.45 5.45 0 00-1.1 1.83 6.4 6.4 0 00-.39 2.27zm17.43-7.83h3.72l7.32 11.79V36.93H450v15.74h-3.56L439 40.51v12.16h-2.81z" id="path372" fill="#035c6e"/><g aria-label="open data, transparante samenleving" transform="scale(1.0225 .97799)" style="line-height:19.46294785px;-inkscape-font-specification:'IBM Plex Sans ExtraLight, Ultra-Light'" id="text138-1" font-style="normal" font-variant="normal" font-weight="200" font-stretch="normal" font-size="19.463" font-family="IBM Plex Sans ExtraLight" letter-spacing="-.416" word-spacing="0" fill="#035c6e" fill-opacity="1" stroke="none" stroke-width=".502" stroke-linecap="butt" stroke-linejoin="miter" stroke-opacity="1"><path d="M144.188 81.29q-1.947 0-3.076-1.324-1.109-1.324-1.109-3.854 0-2.55 1.11-3.853 1.128-1.324 3.075-1.324 1.946 0 3.055 1.324 1.13 1.304 1.13 3.853 0 2.53-1.13 3.854-1.11 1.323-3.055 1.323zm0-.604q1.654 0 2.55-1.07.894-1.09.894-2.978v-1.051q0-1.908-.895-2.978-.895-1.07-2.55-1.07-1.654 0-2.55 1.07-.894 1.07-.894 2.978v1.05q0 1.889.895 2.979.895 1.07 2.55 1.07z" style="line-height:100%;-inkscape-font-specification:'IBM Plex Sans ExtraLight, Ultra-Light'" id="path4224"/><path d="M151.03 71.169h.681v1.537h.059q.33-.72 1.109-1.245.779-.526 2.024-.526 1.946 0 3.017 1.324 1.09 1.304 1.09 3.853 0 2.55-1.09 3.873-1.07 1.304-3.017 1.304-1.245 0-2.024-.525-.778-.545-1.11-1.246h-.058v5.43h-.681zm3.776 9.498q1.654 0 2.55-1.07.914-1.071.914-2.92v-1.13q0-1.848-.914-2.919-.896-1.09-2.55-1.09-.623 0-1.187.195-.565.175-.993.506-.409.312-.662.779-.253.447-.253.992v4.165q0 .565.253 1.032.253.447.662.778.428.331.993.506.564.176 1.187.176z" style="line-height:100%;-inkscape-font-specification:'IBM Plex Sans ExtraLight, Ultra-Light'" id="path4226"/><path d="M165.015 81.29q-1.966 0-3.114-1.324-1.13-1.324-1.13-3.854 0-2.51 1.11-3.834 1.11-1.343 3.056-1.343.915 0 1.654.35.76.35 1.285.993.545.642.837 1.557.292.895.292 2.005v.311h-7.513v.526q0 .914.233 1.654.234.74.682 1.265.467.526 1.109.818.662.272 1.499.272 2.355 0 3.25-2.258l.525.292q-.447 1.168-1.4 1.869-.955.7-2.375.7zm-.078-9.752q-.818 0-1.46.292-.623.273-1.07.798-.448.526-.682 1.265-.233.74-.233 1.635v.078h6.773v-.117q0-.895-.253-1.615-.234-.74-.681-1.246-.428-.525-1.051-.798-.604-.292-1.343-.292z" style="line-height:100%;-inkscape-font-specification:'IBM Plex Sans ExtraLight, Ultra-Light'" id="path4228"/><path d="M171.647 81.056v-9.887h.68v1.518h.06q.291-.72 1.011-1.226.74-.526 2.025-.526 1.634 0 2.49.973.877.954.877 2.803v6.345h-.682v-6.228q0-1.713-.74-2.492-.72-.798-2.101-.798-.565 0-1.11.156-.525.156-.934.467-.408.312-.662.779-.233.467-.233 1.09v7.026z" style="line-height:100%;-inkscape-font-specification:'IBM Plex Sans ExtraLight, Ultra-Light'" id="path4230"/><path d="M192.749 79.518h-.059q-.33.7-1.11 1.246-.778.525-2.023.525-1.947 0-3.036-1.304-1.071-1.323-1.071-3.873 0-2.55 1.07-3.853 1.09-1.324 3.037-1.324 1.245 0 2.024.526.778.525 1.11 1.245h.058v-6.053h.68v14.403h-.68zm-3.095 1.149q.623 0 1.187-.176.565-.175.973-.506.429-.33.682-.778.253-.467.253-1.032V74.01q0-.545-.253-.992-.253-.467-.682-.779-.408-.33-.973-.506-.564-.195-1.187-.195-1.654 0-2.57 1.09-.894 1.07-.894 2.92v1.129q0 1.849.895 2.92.915 1.07 2.569 1.07z" style="line-height:100%;-inkscape-font-specification:'IBM Plex Sans ExtraLight, Ultra-Light'" id="path4232"/><path d="M203.337 81.056q-.798 0-.836-.818v-.72h-.078q-.35.76-1.11 1.265-.759.506-2.043.506-1.538 0-2.375-.74-.837-.739-.837-2.082 0-.642.195-1.168.195-.525.642-.895.467-.39 1.187-.584.74-.214 1.81-.214h2.59v-1.323q0-1.402-.682-2.063-.681-.682-2.024-.682-2.083 0-2.88 1.752l-.487-.33q.408-.916 1.206-1.46.798-.565 2.18-.565 1.655 0 2.51.856.857.837.857 2.414v6.247h1.518v.604zm-4.009-.37q.642 0 1.207-.156.584-.175 1.012-.486.428-.312.681-.779.253-.467.253-1.09v-2.024h-2.588q-1.635 0-2.375.565-.74.545-.74 1.46v.544q0 .973.701 1.48.72.486 1.85.486z" style="line-height:100%;-inkscape-font-specification:'IBM Plex Sans ExtraLight, Ultra-Light'" id="path4234"/><path d="M207.97 81.056q-.837 0-.837-.818v-8.466h-1.79v-.603h1.284q.331 0 .429-.137.116-.136.116-.467v-2.199h.643v2.803h2.316v.603h-2.316v8.68h2.16v.604z" style="line-height:100%;-inkscape-font-specification:'IBM Plex Sans ExtraLight, Ultra-Light'" id="path4236"/><path d="M218.966 81.056q-.798 0-.837-.818v-.72h-.078q-.35.76-1.11 1.265-.758.506-2.043.506-1.537 0-2.374-.74-.837-.739-.837-2.082 0-.642.194-1.168.195-.525.643-.895.467-.39 1.187-.584.74-.214 1.81-.214h2.589v-1.323q0-1.402-.682-2.063-.68-.682-2.024-.682-2.082 0-2.88 1.752l-.487-.33q.409-.916 1.207-1.46.798-.565 2.18-.565 1.654 0 2.51.856.857.837.857 2.414v6.247h1.518v.604zm-4.01-.37q.643 0 1.207-.156.584-.175 1.012-.486.429-.312.682-.779.253-.467.253-1.09v-2.024h-2.589q-1.635 0-2.374.565-.74.545-.74 1.46v.544q0 .973.7 1.48.72.486 1.85.486z" style="line-height:100%;-inkscape-font-specification:'IBM Plex Sans ExtraLight, Ultra-Light'" id="path4238"/><path d="M222.915 79.732q.35 0 .506.195.175.175.175.467v.234q0 .817-.447 1.712-.448.896-1.13 1.518h-.583q.7-.7 1.012-1.42.33-.701.428-1.265-.35-.02-.506-.195-.136-.175-.136-.39v-.194q0-.292.155-.467.156-.195.526-.195z" style="line-height:100%;-inkscape-font-specification:'IBM Plex Sans ExtraLight, Ultra-Light'" id="path4240"/><path d="M232.309 81.056q-.837 0-.837-.818v-8.466h-1.79v-.603h1.284q.33 0 .428-.137.117-.136.117-.467v-2.199h.642v2.803h2.316v.603h-2.316v8.68h2.16v.604z" style="line-height:100%;-inkscape-font-specification:'IBM Plex Sans ExtraLight, Ultra-Light'" id="path4242"/><path d="M236.863 81.056v-9.887h.68V72.9h.079q.311-.7 1.012-1.207.7-.525 2.024-.525h.74v.642h-.857q-.603 0-1.148.156-.545.155-.954.467-.409.311-.662.778-.233.448-.233 1.051v6.793z" style="line-height:100%;-inkscape-font-specification:'IBM Plex Sans ExtraLight, Ultra-Light'" id="path4244"/><path d="M249.617 81.056q-.797 0-.836-.818v-.72h-.078q-.35.76-1.11 1.265-.759.506-2.043.506-1.538 0-2.375-.74-.837-.739-.837-2.082 0-.642.195-1.168.195-.525.642-.895.467-.39 1.188-.584.74-.214 1.81-.214h2.588v-1.323q0-1.402-.681-2.063-.681-.682-2.024-.682-2.083 0-2.88 1.752l-.487-.33q.408-.916 1.206-1.46.798-.565 2.18-.565 1.655 0 2.511.856.856.837.856 2.414v6.247h1.518v.604zm-4.009-.37q.642 0 1.207-.156.584-.175 1.012-.486.428-.312.681-.779.253-.467.253-1.09v-2.024h-2.588q-1.635 0-2.375.565-.74.545-.74 1.46v.544q0 .973.701 1.48.72.486 1.85.486z" style="line-height:100%;-inkscape-font-specification:'IBM Plex Sans ExtraLight, Ultra-Light'" id="path4246"/><path d="M252.91 81.056v-9.887h.68v1.518h.059q.292-.72 1.012-1.226.74-.526 2.024-.526 1.635 0 2.491.973.876.954.876 2.803v6.345h-.681v-6.228q0-1.713-.74-2.492-.72-.798-2.102-.798-.564 0-1.11.156-.525.156-.933.467-.409.312-.662.779-.234.467-.234 1.09v7.026z" style="line-height:100%;-inkscape-font-specification:'IBM Plex Sans ExtraLight, Ultra-Light'" id="path4248"/><path d="M266.032 81.29q-1.226 0-2.141-.448-.895-.448-1.577-1.402l.526-.389q.662.876 1.401 1.265.76.37 1.81.37 1.324 0 2.005-.545.681-.545.681-1.576 0-.993-.584-1.48-.564-.486-1.751-.68l-.837-.137q-.662-.097-1.207-.292-.525-.195-.915-.506-.37-.33-.584-.798-.194-.467-.194-1.129 0-.642.233-1.129.253-.486.682-.817.447-.331 1.031-.487.603-.175 1.285-.175 1.245 0 2.024.448.778.428 1.284 1.012l-.486.447q-.214-.253-.487-.486-.253-.234-.584-.409-.33-.194-.778-.292-.428-.117-.993-.117-1.168 0-1.868.506-.681.507-.681 1.48 0 .992.583 1.46.584.447 1.772.642l.836.136q1.382.214 2.122.856.759.623.759 1.888 0 1.324-.895 2.063-.896.72-2.472.72z" style="line-height:100%;-inkscape-font-specification:'IBM Plex Sans ExtraLight, Ultra-Light'" id="path4250"/><path d="M272.073 71.169h.681v1.537h.059q.33-.72 1.11-1.245.778-.526 2.023-.526 1.947 0 3.017 1.324 1.09 1.304 1.09 3.853 0 2.55-1.09 3.873-1.07 1.304-3.017 1.304-1.245 0-2.024-.525-.778-.545-1.11-1.246h-.058v5.43h-.68zm3.776 9.498q1.654 0 2.55-1.07.914-1.071.914-2.92v-1.13q0-1.848-.914-2.919-.896-1.09-2.55-1.09-.623 0-1.187.195-.565.175-.993.506-.409.312-.662.779-.253.447-.253.992v4.165q0 .565.253 1.032.253.447.662.778.428.331.993.506.564.176 1.187.176z" style="line-height:100%;-inkscape-font-specification:'IBM Plex Sans ExtraLight, Ultra-Light'" id="path4252"/><path d="M289.124 81.056q-.798 0-.837-.818v-.72h-.078q-.35.76-1.11 1.265-.759.506-2.043.506-1.538 0-2.375-.74-.837-.739-.837-2.082 0-.642.195-1.168.195-.525.642-.895.467-.39 1.188-.584.74-.214 1.81-.214h2.588v-1.323q0-1.402-.681-2.063-.681-.682-2.024-.682-2.083 0-2.88 1.752l-.487-.33q.408-.916 1.206-1.46.798-.565 2.18-.565 1.655 0 2.511.856.856.837.856 2.414v6.247h1.518v.604zm-4.01-.37q.643 0 1.207-.156.584-.175 1.012-.486.428-.312.681-.779.253-.467.253-1.09v-2.024h-2.588q-1.635 0-2.375.565-.74.545-.74 1.46v.544q0 .973.701 1.48.72.486 1.85.486z" style="line-height:100%;-inkscape-font-specification:'IBM Plex Sans ExtraLight, Ultra-Light'" id="path4254"/><path d="M292.415 81.056v-9.887h.682V72.9h.077q.312-.7 1.013-1.207.7-.525 2.024-.525h.74v.642h-.857q-.603 0-1.148.156-.545.155-.954.467-.409.311-.662.778-.233.448-.233 1.051v6.793z" style="line-height:100%;-inkscape-font-specification:'IBM Plex Sans ExtraLight, Ultra-Light'" id="path4256"/><path d="M305.17 81.056q-.798 0-.837-.818v-.72h-.077q-.35.76-1.11 1.265-.759.506-2.043.506-1.538 0-2.375-.74-.837-.739-.837-2.082 0-.642.195-1.168.194-.525.642-.895.467-.39 1.187-.584.74-.214 1.81-.214h2.589v-1.323q0-1.402-.681-2.063-.682-.682-2.024-.682-2.083 0-2.881 1.752l-.487-.33q.41-.916 1.207-1.46.798-.565 2.18-.565 1.654 0 2.51.856.857.837.857 2.414v6.247h1.518v.604zm-4.01-.37q.643 0 1.208-.156.584-.175 1.012-.486.428-.312.68-.779.254-.467.254-1.09v-2.024h-2.589q-1.635 0-2.374.565-.74.545-.74 1.46v.544q0 .973.701 1.48.72.486 1.849.486z" style="line-height:100%;-inkscape-font-specification:'IBM Plex Sans ExtraLight, Ultra-Light'" id="path4258"/><path d="M308.462 81.056v-9.887h.681v1.518h.059q.292-.72 1.012-1.226.74-.526 2.024-.526 1.635 0 2.491.973.876.954.876 2.803v6.345h-.681v-6.228q0-1.713-.74-2.492-.72-.798-2.102-.798-.564 0-1.11.156-.525.156-.933.467-.41.312-.662.779-.234.467-.234 1.09v7.026z" style="line-height:100%;-inkscape-font-specification:'IBM Plex Sans ExtraLight, Ultra-Light'" id="path4260"/><path d="M320.183 81.056q-.837 0-.837-.818v-8.466h-1.79v-.603h1.284q.331 0 .429-.137.116-.136.116-.467v-2.199h.643v2.803h2.316v.603h-2.316v8.68h2.16v.604z" style="line-height:100%;-inkscape-font-specification:'IBM Plex Sans ExtraLight, Ultra-Light'" id="path4262"/><path d="M328.029 81.29q-1.966 0-3.114-1.324-1.13-1.324-1.13-3.854 0-2.51 1.11-3.834 1.11-1.343 3.056-1.343.915 0 1.654.35.76.35 1.285.993.545.642.837 1.557.292.895.292 2.005v.311h-7.513v.526q0 .914.234 1.654.233.74.68 1.265.468.526 1.11.818.662.272 1.499.272 2.355 0 3.25-2.258l.526.292q-.448 1.168-1.402 1.869-.953.7-2.374.7zm-.078-9.752q-.818 0-1.46.292-.623.273-1.07.798-.448.526-.681 1.265-.234.74-.234 1.635v.078h6.773v-.117q0-.895-.253-1.615-.233-.74-.681-1.246-.428-.525-1.051-.798-.603-.292-1.343-.292z" style="line-height:100%;-inkscape-font-specification:'IBM Plex Sans ExtraLight, Ultra-Light'" id="path4264"/><path d="M341.511 81.29q-1.226 0-2.14-.448-.896-.448-1.577-1.402l.525-.389q.662.876 1.402 1.265.759.37 1.81.37 1.323 0 2.004-.545.682-.545.682-1.576 0-.993-.584-1.48-.565-.486-1.752-.68l-.837-.137q-.662-.097-1.207-.292-.525-.195-.914-.506-.37-.33-.584-.798-.195-.467-.195-1.129 0-.642.234-1.129.253-.486.681-.817.448-.331 1.032-.487.603-.175 1.284-.175 1.246 0 2.024.448.779.428 1.285 1.012l-.487.447q-.214-.253-.486-.486-.253-.234-.584-.409-.331-.194-.779-.292-.428-.117-.992-.117-1.168 0-1.869.506-.681.507-.681 1.48 0 .992.584 1.46.584.447 1.771.642l.837.136q1.382.214 2.121.856.76.623.76 1.888 0 1.324-.896 2.063-.895.72-2.472.72z" style="line-height:100%;-inkscape-font-specification:'IBM Plex Sans ExtraLight, Ultra-Light'" id="path4266"/><path d="M353.995 81.056q-.798 0-.837-.818v-.72h-.078q-.35.76-1.11 1.265-.759.506-2.043.506-1.538 0-2.375-.74-.836-.739-.836-2.082 0-.642.194-1.168.195-.525.642-.895.468-.39 1.188-.584.74-.214 1.81-.214h2.588v-1.323q0-1.402-.68-2.063-.682-.682-2.025-.682-2.083 0-2.88 1.752l-.487-.33q.409-.916 1.207-1.46.798-.565 2.18-.565 1.654 0 2.51.856.857.837.857 2.414v6.247h1.518v.604zm-4.01-.37q.643 0 1.207-.156.584-.175 1.012-.486.428-.312.681-.779.253-.467.253-1.09v-2.024h-2.588q-1.635 0-2.375.565-.74.545-.74 1.46v.544q0 .973.701 1.48.72.486 1.85.486z" style="line-height:100%;-inkscape-font-specification:'IBM Plex Sans ExtraLight, Ultra-Light'" id="path4268"/><path d="M357.286 81.056v-9.887h.682v1.518h.058q.136-.35.37-.662.253-.311.603-.545.35-.253.818-.39.486-.155 1.129-.155 1.167 0 1.965.545.798.526 1.13 1.596h.058q.272-.934 1.05-1.538.799-.603 2.141-.603 1.635 0 2.492.973.856.954.856 2.803v6.345h-.681v-6.248q0-1.674-.7-2.472-.701-.798-2.103-.798-.564 0-1.09.156-.506.156-.895.467-.39.312-.623.798-.233.467-.233 1.09v7.007h-.682v-6.248q0-1.693-.72-2.472-.72-.798-2.082-.798-.565 0-1.09.156-.506.156-.915.467-.39.312-.623.779-.233.467-.233 1.09v7.026z" style="line-height:100%;-inkscape-font-specification:'IBM Plex Sans ExtraLight, Ultra-Light'" id="path4270"/><path d="M377.383 81.29q-1.966 0-3.114-1.324-1.129-1.324-1.129-3.854 0-2.51 1.11-3.834 1.109-1.343 3.055-1.343.915 0 1.654.35.76.35 1.285.993.545.642.837 1.557.292.895.292 2.005v.311h-7.513v.526q0 .914.234 1.654.233.74.68 1.265.468.526 1.11.818.662.272 1.499.272 2.355 0 3.25-2.258l.526.292q-.448 1.168-1.402 1.869-.953.7-2.374.7zm-.078-9.752q-.817 0-1.46.292-.622.273-1.07.798-.448.526-.681 1.265-.234.74-.234 1.635v.078h6.773v-.117q0-.895-.253-1.615-.233-.74-.681-1.246-.428-.525-1.051-.798-.603-.292-1.343-.292z" style="line-height:100%;-inkscape-font-specification:'IBM Plex Sans ExtraLight, Ultra-Light'" id="path4272"/><path d="M384.015 81.056v-9.887h.681v1.518h.059q.292-.72 1.012-1.226.74-.526 2.024-.526 1.635 0 2.491.973.876.954.876 2.803v6.345h-.681v-6.228q0-1.713-.74-2.492-.72-.798-2.102-.798-.564 0-1.11.156-.525.156-.933.467-.41.312-.662.779-.234.467-.234 1.09v7.026z" style="line-height:100%;-inkscape-font-specification:'IBM Plex Sans ExtraLight, Ultra-Light'" id="path4274"/><path d="M395.308 81.056q-.837 0-.837-.818V66.653h.681v13.8h1.616v.603z" style="line-height:100%;-inkscape-font-specification:'IBM Plex Sans ExtraLight, Ultra-Light'" id="path4276"/><path d="M402.441 81.29q-1.965 0-3.114-1.324-1.129-1.324-1.129-3.854 0-2.51 1.11-3.834 1.11-1.343 3.056-1.343.914 0 1.654.35.759.35 1.284.993.545.642.837 1.557.292.895.292 2.005v.311h-7.512v.526q0 .914.233 1.654.234.74.681 1.265.467.526 1.11.818.661.272 1.498.272 2.355 0 3.25-2.258l.526.292q-.447 1.168-1.401 1.869-.954.7-2.375.7zm-.078-9.752q-.817 0-1.46.292-.622.273-1.07.798-.447.526-.68 1.265-.234.74-.234 1.635v.078h6.773v-.117q0-.895-.253-1.615-.234-.74-.682-1.246-.428-.525-1.05-.798-.604-.292-1.344-.292z" style="line-height:100%;-inkscape-font-specification:'IBM Plex Sans ExtraLight, Ultra-Light'" id="path4278"/><path d="M407.537 71.169h.72l3.309 9.147h.058l3.309-9.147h.68l-3.639 9.887h-.798z" style="line-height:100%;-inkscape-font-specification:'IBM Plex Sans ExtraLight, Ultra-Light'" id="path4280"/><path d="M417.941 68.113q-.311 0-.447-.136-.137-.156-.137-.37v-.175q0-.214.117-.35.136-.156.448-.156.311 0 .447.155.137.137.137.35v.176q0 .214-.136.37-.117.136-.429.136zm-.35 3.056h.681v9.887h-.681z" style="line-height:100%;-inkscape-font-specification:'IBM Plex Sans ExtraLight, Ultra-Light'" id="path4282"/><path d="M421.737 81.056v-9.887h.681v1.518h.059q.292-.72 1.012-1.226.74-.526 2.024-.526 1.635 0 2.491.973.876.954.876 2.803v6.345h-.681v-6.228q0-1.713-.74-2.492-.72-.798-2.102-.798-.564 0-1.11.156-.525.156-.934.467-.408.312-.661.779-.234.467-.234 1.09v7.026z" style="line-height:100%;-inkscape-font-specification:'IBM Plex Sans ExtraLight, Ultra-Light'" id="path4284"/><path d="M440.095 82.282q0 1.499-1.226 2.2-1.207.7-3.484.7-2.219 0-3.211-.681-.993-.681-.993-1.83 0-.876.487-1.44.486-.545 1.362-.817v-.078q-.992-.331-.992-1.343 0-.681.486-1.09.506-.409 1.187-.604v-.058q-.856-.39-1.343-1.129-.467-.74-.467-1.849 0-.759.234-1.362.253-.623.7-1.051.448-.448 1.09-.681.643-.234 1.44-.234 1.285 0 2.103.584v-.779q0-.72.68-.72h1.889v.604h-2.102v1.245q.447.448.681 1.051.253.604.253 1.343 0 .74-.253 1.363-.253.603-.72 1.05-.448.429-1.09.682-.642.233-1.42.233-.293 0-.546-.039-.253-.038-.525-.097-.798.214-1.226.565-.429.35-.429.875 0 .41.35.72.351.292 1.305.292h2.51q1.733 0 2.492.643.778.623.778 1.732zm-.681.039q0-.837-.584-1.304-.564-.467-2.044-.467h-3.094q-.818.214-1.324.7-.506.506-.506 1.343 0 .876.779 1.421.778.565 2.2.565h1.07q.778 0 1.42-.137.643-.136 1.11-.408.467-.273.72-.701.253-.428.253-1.012zm-4.029-5.333q1.285 0 2.005-.662.72-.661.72-1.712v-.701q0-1.051-.72-1.713-.72-.662-2.005-.662-1.304 0-2.024.662-.7.662-.7 1.713v.7q0 1.052.72 1.713.72.662 2.004.662z" style="line-height:100%;-inkscape-font-specification:'IBM Plex Sans ExtraLight, Ultra-Light'" id="path4286"/></g></svg>