<?xml version="1.0" encoding="UTF-8"?>
<svg id="Laag_1" data-name="Laag 1" xmlns="http://www.w3.org/2000/svg" viewBox="0 0 192.64 51.12">
  <defs>
    <style>
      .cls-1 {
        fill: #045d6f;
      }

      .cls-2 {
        fill: #81cde0;
      }
    </style>
  </defs>
  <g>
    <path class="cls-2" d="m84.66,14.35c0,1.36-.24,2.61-.71,3.74-.47,1.13-1.12,2.09-1.96,2.9-.84.8-1.83,1.42-2.98,1.86-1.15.44-2.4.66-3.75.66s-2.59-.22-3.74-.66c-1.14-.44-2.13-1.06-2.97-1.86-.84-.8-1.49-1.77-1.96-2.9-.47-1.13-.71-2.37-.71-3.74s.23-2.62.71-3.73,1.12-2.06,1.96-2.83c.83-.78,1.82-1.38,2.97-1.8,1.14-.42,2.39-.63,3.74-.63s2.59.21,3.75.63c1.15.42,2.14,1.02,2.98,1.8.83.78,1.49,1.72,1.96,2.83.47,1.11.71,2.36.71,3.73Zm-4.45,0c0-.75-.12-1.44-.37-2.09-.24-.65-.58-1.21-1.01-1.67-.43-.46-.95-.83-1.56-1.09-.61-.27-1.28-.4-2.01-.4s-1.4.13-2,.4c-.6.27-1.12.63-1.56,1.09-.44.46-.77,1.02-1.01,1.67-.24.65-.35,1.35-.35,2.09s.12,1.5.37,2.15c.24.66.58,1.22,1.01,1.69s.94.84,1.54,1.11c.6.27,1.27.4,2,.4s1.39-.13,2-.4c.6-.27,1.12-.64,1.56-1.11.44-.47.78-1.03,1.02-1.69.24-.66.37-1.37.37-2.15Z"/>
    <path class="cls-2" d="m100.47,11.11c0,1.01-.19,1.85-.56,2.54s-.88,1.25-1.51,1.67c-.63.42-1.36.73-2.19.92-.83.19-1.69.29-2.58.29h-2.07v6.5h-4.16V5.81h6.33c.94,0,1.82.09,2.64.28s1.53.49,2.14.9c.61.41,1.09.96,1.44,1.63.35.67.52,1.5.52,2.49Zm-4.16.02c0-.41-.08-.74-.24-1-.16-.26-.38-.46-.66-.61-.28-.15-.59-.24-.94-.29-.35-.05-.71-.07-1.08-.07h-1.83v4.06h1.75c.39,0,.76-.03,1.12-.1.36-.07.68-.18.96-.34.28-.16.51-.38.67-.65.16-.27.24-.6.24-1.01Z"/>
    <path class="cls-2" d="m102.98,23.03V5.81h11.58v3.5h-7.57v3.26h7.15v3.33h-7.15v3.58h8v3.55h-12.02Z"/>
    <path class="cls-2" d="m128.7,23.03l-6.93-11.27h-.07l.1,11.27h-4.04V5.81h4.74l6.91,11.24h.07l-.1-11.24h4.04v17.23h-4.72Z"/>
    <path class="cls-1" d="m75.61,32.86c-.33-.42-.78-.77-1.38-1.06-.59-.28-1.19-.43-1.79-.43-.36,0-.71.04-1.07.13-.36.09-.68.23-.97.41s-.53.43-.72.73-.28.66-.28,1.08c0,.39.08.72.24,1,.16.28.38.51.67.71.28.2.63.37,1.03.51.41.15.85.29,1.34.44.55.18,1.12.38,1.71.61.59.23,1.14.53,1.63.9.49.37.9.84,1.22,1.41.32.57.47,1.27.47,2.12,0,.92-.17,1.73-.51,2.42s-.79,1.26-1.36,1.71c-.57.45-1.23.79-2,1.02-.76.23-1.57.34-2.41.34-1.12,0-2.21-.21-3.28-.62-1.07-.41-1.95-1.03-2.63-1.84l2.19-2.04c.42.58.99,1.05,1.69,1.39.71.34,1.4.51,2.08.51.36,0,.72-.04,1.09-.13.37-.09.71-.24,1.01-.45s.54-.47.73-.79c.19-.32.28-.71.28-1.18s-.11-.83-.32-1.13-.5-.56-.85-.78c-.36-.22-.78-.41-1.26-.57-.49-.16-1-.33-1.53-.51-.52-.16-1.04-.36-1.56-.58-.52-.23-.99-.53-1.4-.9-.41-.37-.75-.83-1.01-1.38-.26-.54-.39-1.22-.39-2.03,0-.88.18-1.63.55-2.26s.84-1.16,1.44-1.57c.59-.41,1.26-.72,2.02-.92.75-.2,1.52-.3,2.3-.3.88,0,1.76.15,2.67.46.9.31,1.68.77,2.35,1.39l-2,2.19Z"/>
    <path class="cls-1" d="m80.79,29.25h5.62c.99,0,1.88.09,2.68.27.79.18,1.48.47,2.04.88.57.41,1.01.92,1.31,1.56.31.63.46,1.39.46,2.29,0,.96-.18,1.76-.54,2.41-.36.65-.84,1.17-1.45,1.57-.61.4-1.32.69-2.13.86-.81.18-1.67.27-2.58.27h-2.36v7.13h-3.07v-17.23Zm5.21,7.52c.5,0,.98-.04,1.44-.11.45-.07.86-.2,1.22-.39.36-.19.64-.44.85-.77.21-.32.32-.75.32-1.26s-.11-.91-.32-1.23c-.21-.32-.49-.56-.84-.74-.35-.18-.75-.3-1.19-.35-.45-.06-.91-.08-1.38-.08h-2.24v4.94h2.14Z"/>
    <path class="cls-1" d="m95.63,29.25h11.41v2.68h-8.35v4.38h7.91v2.58h-7.91v4.87h8.78v2.73h-11.85v-17.23Z"/>
    <path class="cls-1" d="m110.47,29.25h4.06l8,12.9h.05v-12.9h3.07v17.23h-3.89l-8.17-13.31h-.05v13.31h-3.07v-17.23Z"/>
    <path class="cls-1" d="m129.45,29.25h6.11c1.12,0,2.25.15,3.38.44,1.14.29,2.16.78,3.07,1.45.91.67,1.65,1.56,2.21,2.65.57,1.09.85,2.45.85,4.08,0,1.51-.28,2.81-.85,3.89-.57,1.09-1.31,1.98-2.21,2.68-.91.7-1.93,1.21-3.07,1.54-1.14.33-2.26.5-3.38.5h-6.11v-17.23Zm5.62,14.55c.79,0,1.59-.09,2.38-.28s1.51-.5,2.15-.95,1.16-1.05,1.57-1.81c.41-.76.61-1.73.61-2.9,0-1.23-.2-2.24-.61-3.02-.41-.78-.93-1.39-1.57-1.83-.64-.44-1.36-.74-2.15-.9s-1.59-.24-2.38-.24h-2.55v11.92h2.55Z"/>
    <path class="cls-1" d="m148.04,29.25h3.07v17.23h-3.07v-17.23Z"/>
    <path class="cls-1" d="m154.9,29.25h4.06l8,12.9h.05v-12.9h3.07v17.23h-3.89l-8.17-13.31h-.05v13.31h-3.07v-17.23Z"/>
    <path class="cls-1" d="m188.97,45.58c-.88.42-1.84.75-2.88.99-1.05.24-2.25.35-3.61.35s-2.67-.22-3.82-.67c-1.15-.45-2.14-1.07-2.97-1.87s-1.47-1.76-1.93-2.87c-.46-1.11-.69-2.34-.69-3.69s.24-2.62.72-3.73,1.14-2.06,1.97-2.83c.84-.78,1.82-1.38,2.96-1.8,1.13-.42,2.37-.63,3.7-.63s2.64.2,3.78.6,2.06.92,2.76,1.57l-2.12,2.29c-.44-.49-1.05-.9-1.84-1.24-.79-.34-1.64-.51-2.57-.51s-1.73.16-2.47.49c-.74.33-1.37.77-1.89,1.34-.52.57-.92,1.23-1.2,2-.28.76-.43,1.59-.43,2.48s.14,1.77.43,2.54c.28.77.69,1.44,1.22,2.01.53.57,1.17,1.01,1.92,1.33.75.32,1.61.47,2.57.47,1.31,0,2.46-.2,3.43-.61v-4.38h-3.62v-2.53h6.59v8.93Z"/>
  </g>
  <g>
    <path class="cls-1" d="m44.93,8.4l-12.96,12.96-.56,1.67h-1.11l-2.96,2.96h3.32l-1.42,4.3h-6.2l-1.05,1.05c.13.2.25.41.41.6.42.51.93.96,1.54,1.34s1.29.67,2.04.88c.75.21,1.54.31,2.38.31,2.06,0,3.82-.43,5.3-1.29l1.54,5.3c-.81.47-1.84.86-3.11,1.17-1.27.31-2.68.46-4.24.46-1.84,0-3.48-.25-4.95-.75-1.46-.5-2.73-1.19-3.82-2.06-.56-.46-1.08-.96-1.55-1.5l-8.95,8.95c10.6,9.46,26.87,8.54,36.33-2.07,8.71-9.76,8.71-24.5,0-34.26Z"/>
    <g>
      <path class="cls-2" d="m14.71,30.29h-3.84l1.42-4.3h1.88c-.03-.25-.04-.5-.04-.75v-.71c0-.5.04-1,.13-1.5h-3.26l1.5-4.34h2.38c.44-1.53,1.1-2.89,1.96-4.09.86-1.2,1.9-2.21,3.11-3.05,1.21-.83,2.56-1.47,4.05-1.92,1.49-.44,3.08-.67,4.78-.67,1.22,0,2.46.11,3.71.33,1.25.22,2.28.53,3.09.92l-2.04,5.26c-.61-.31-1.37-.54-2.27-.71-.9-.17-1.8-.25-2.69-.25-.72,0-1.43.09-2.13.27-.7.18-1.34.45-1.94.79-.6.35-1.13.79-1.61,1.31-.47.53-.83,1.13-1.08,1.79h8.77l12.33-12.33C33.14-2.31,18.44-2.31,8.69,6.37-1.93,15.82-2.89,32.08,6.56,42.71l9.34-9.34c-.51-.97-.91-1.99-1.19-3.07Z"/>
      <path class="cls-2" d="m20.63,23.03c-.06.25-.08.49-.08.73v1.5c0,.26.01.51.04.73h2.68l2.96-2.96h-5.6Z"/>
    </g>
  </g>
</svg>