<?xml version="1.0" encoding="UTF-8"?>
<svg id="Laag_1" data-name="Laag 1" xmlns="http://www.w3.org/2000/svg" viewBox="0 0 192.64 51.12">
  <defs>
    <style>
      .cls-1, .cls-2 {
        fill: #045d6f;
      }

      .cls-3, .cls-4 {
        fill: #81cde0;
      }

      .cls-2 {
        font-family: AvenirNext-DemiBold, 'Avenir Next';
        font-weight: 300;
      }

      .cls-4 {
        font-family: AvenirNext-Bold, 'Avenir Next';
        font-weight: 700;
      }

      .cls-5 {
        font-size: 24.33px;
      }
    </style>
  </defs>
  <text class="cls-5" transform="translate(64.93 23.03)"><tspan class="cls-4"><tspan x="0" y="0">OPEN</tspan></tspan><tspan class="cls-2"><tspan x="0" y="23.45">SPENDING</tspan></tspan></text>
  <g>
    <path class="cls-1" d="m44.93,8.4l-12.96,12.96-.56,1.67h-1.11l-2.96,2.96h3.32l-1.42,4.3h-6.2l-1.05,1.05c.13.2.25.41.41.6.42.51.93.96,1.54,1.34s1.29.67,2.04.88c.75.21,1.54.31,2.38.31,2.06,0,3.82-.43,5.3-1.29l1.54,5.3c-.81.47-1.84.86-3.11,1.17-1.27.31-2.68.46-4.24.46-1.84,0-3.48-.25-4.95-.75-1.46-.5-2.73-1.19-3.82-2.06-.56-.46-1.08-.96-1.55-1.5l-8.95,8.95c10.6,9.46,26.87,8.54,36.33-2.07,8.71-9.76,8.71-24.5,0-34.26Z"/>
    <g>
      <path class="cls-3" d="m14.71,30.29h-3.84l1.42-4.3h1.88c-.03-.25-.04-.5-.04-.75v-.71c0-.5.04-1,.13-1.5h-3.26l1.5-4.34h2.38c.44-1.53,1.1-2.89,1.96-4.09.86-1.2,1.9-2.21,3.11-3.05,1.21-.83,2.56-1.47,4.05-1.92,1.49-.44,3.08-.67,4.78-.67,1.22,0,2.46.11,3.71.33,1.25.22,2.28.53,3.09.92l-2.04,5.26c-.61-.31-1.37-.54-2.27-.71-.9-.17-1.8-.25-2.69-.25-.72,0-1.43.09-2.13.27-.7.18-1.34.45-1.94.79-.6.35-1.13.79-1.61,1.31-.47.53-.83,1.13-1.08,1.79h8.77l12.33-12.33C33.14-2.31,18.44-2.31,8.69,6.37-1.93,15.82-2.89,32.08,6.56,42.71l9.34-9.34c-.51-.97-.91-1.99-1.19-3.07Z"/>
      <path class="cls-3" d="m20.63,23.03c-.06.25-.08.49-.08.73v1.5c0,.26.01.51.04.73h2.68l2.96-2.96h-5.6Z"/>
    </g>
  </g>
</svg>