<?xml version="1.0" encoding="UTF-8" standalone="no"?>
<svg
   xmlns:dc="http://purl.org/dc/elements/1.1/"
   xmlns:cc="http://creativecommons.org/ns#"
   xmlns:rdf="http://www.w3.org/1999/02/22-rdf-syntax-ns#"
   xmlns:svg="http://www.w3.org/2000/svg"
   xmlns="http://www.w3.org/2000/svg"
   viewBox="0 0 582.3526 200"
   version="1.1"
   id="svg39"
   width="582.3526"
   height="200">
  <metadata
     id="metadata43">
    <rdf:RDF>
      <cc:Work
         rdf:about="">
        <dc:format>image/svg+xml</dc:format>
        <dc:type
           rdf:resource="http://purl.org/dc/dcmitype/StillImage" />
        <dc:title>openspending logo</dc:title>
      </cc:Work>
    </rdf:RDF>
  </metadata>
  <defs
     id="defs4">
    <style
       id="style2">.cls-1{isolation:isolate;}.cls-2{font-size:72px;fill:#3d4a4c;font-family:Montserrat-Bold, Montserrat;font-weight:700;letter-spacing:-0.01em;}.cls-3{fill:#e6e6e6;}.cls-4,.cls-5,.cls-6{fill:none;stroke-linejoin:bevel;stroke-width:16px;mix-blend-mode:multiply;}.cls-4{stroke:#5dc5cc;}.cls-4,.cls-5{opacity:0.9;}.cls-5{stroke:#c21889;}.cls-6{stroke:#2d8b8c;opacity:0.75;}</style>
  </defs>
  <title
     id="title6">openspending logo</title>
  <g
     class="cls-1"
     id="g37"
     style="isolation:isolate"
     transform="translate(-1)">
    <g
       id="Layer_1"
       data-name="Layer 1">
      <g
         id="text10"
         style="font-weight:700;font-size:72px;font-family:Montserrat-Bold, Montserrat;letter-spacing:-0.01em;fill:#3d4a4c"
         transform="translate(226.09,85.58)"
         aria-label="OpenSpending">
        <path
           id="path830"
           style="font-weight:700;font-size:72px;font-family:Montserrat-Bold, Montserrat;letter-spacing:-0.01em;fill:#3d4a4c"
           d="m 44.712,-25.416 q 0,-6.768 -4.32,-11.52 -4.32,-4.752 -10.656,-4.752 -6.264,0 -10.584,4.752 -4.32,4.752 -4.32,11.52 0,6.696 4.32,11.448 4.32,4.68 10.584,4.68 6.336,0 10.656,-4.68 4.32,-4.752 4.32,-11.448 z m 3.816,18.504 q -7.632,7.416 -18.792,7.416 -11.16,0 -18.792,-7.416 -7.632,-7.488 -7.632,-18.576 0,-11.088 7.632,-18.504 7.632,-7.488 18.792,-7.488 11.16,0 18.792,7.488 7.632,7.416 7.632,18.504 0,11.088 -7.632,18.576 z" />
        <path
           id="path832"
           style="font-weight:700;font-size:72px;font-family:Montserrat-Bold, Montserrat;letter-spacing:-0.01em;fill:#3d4a4c"
           d="m 86.412374,-39.384 q 6.768,0 12.024,5.688 5.327996,5.616 5.327996,14.184 0,8.568 -5.327996,14.328 -5.256,5.76 -12.384,5.76 -7.056,0 -11.376,-5.688 v 19.08 h -10.8 v -52.704 h 10.8 v 4.32 q 4.968,-4.968 11.736,-4.968 z m -11.88,20.088 q 0,4.68 2.592,7.704 2.664,2.952 6.408,2.952 3.744,0 6.552,-2.952 2.808,-3.024 2.808,-7.704 0,-4.68 -2.736,-7.848 -2.736,-3.168 -6.552,-3.168 -3.816,0 -6.48,3.168 -2.592,3.096 -2.592,7.848 z" />
        <path
           id="path834"
           style="font-weight:700;font-size:72px;font-family:Montserrat-Bold, Montserrat;letter-spacing:-0.01em;fill:#3d4a4c"
           d="m 144.6615,-5.616 q -6.552,6.192 -15.408,6.192 -8.784,0 -14.544,-5.4 -5.76,-5.472 -5.76,-14.616 0,-9.144 5.832,-14.544 5.904,-5.4 13.896,-5.4 7.992,0 13.536,4.824 5.616,4.824 5.616,13.248 v 5.76 h -28.224 q 0.504,3.168 3.312,5.184 2.808,2.016 6.336,2.016 5.688,0 9.36,-3.816 z m -7.776,-17.64 q -0.36,-3.456 -2.592,-5.328 -2.232,-1.872 -5.472,-1.872 -3.168,0 -5.832,1.944 -2.664,1.944 -3.096,5.256 z" />
        <path
           id="path836"
           style="font-weight:700;font-size:72px;font-family:Montserrat-Bold, Montserrat;letter-spacing:-0.01em;fill:#3d4a4c"
           d="M 165.627,-21.6 V 0 h -10.8 v -38.736 h 10.8 v 4.32 q 4.896,-4.968 11.016,-4.968 6.12,0 10.224,4.32 4.176,4.32 4.176,11.52 V 0 h -10.8 v -21.888 q 0,-8.928 -6.552,-8.928 -3.24,0 -5.688,2.376 -2.376,2.304 -2.376,6.84 z" />
        <path
           id="path838"
           style=""
           d="m 22.392,30.384 q -2.808,0 -4.464,1.368 -1.584,1.296 -1.584,3.528 0,2.16 1.944,3.456 2.016,1.296 9.144,3.096 7.2,1.728 11.16,5.256 3.96,3.528 3.96,10.296 0,6.768 -5.112,11.016 -5.04,4.176 -13.32,4.176 -11.952,0 -21.528,-8.856 l 6.696,-8.208 q 8.136,7.128 15.048,7.128 3.096,0 4.824,-1.296 1.8,-1.368 1.8,-3.6 0,-2.304 -1.872,-3.6 -1.872,-1.368 -7.416,-2.736 -8.784,-2.088 -12.888,-5.4 -4.032,-3.384 -4.032,-10.512 0,-7.2 5.112,-11.088 5.184,-3.888 12.888,-3.888 5.04,0 10.08,1.728 5.04,1.728 8.784,4.896 l -5.688,8.208 Q 29.376,30.384 22.392,30.384 Z" />
        <path
           id="path840"
           style=""
           d="m 72.912374,32.616 q 6.768,0 12.024,5.688 5.328,5.616 5.328,14.184 0,8.568 -5.328,14.328 -5.256,5.76 -12.384,5.76 -7.056,0 -11.376,-5.688 v 19.08 h -10.8 V 33.264 h 10.8 v 4.32 q 4.968,-4.968 11.736,-4.968 z m -11.88,20.088 q 0,4.68 2.592,7.704 2.664,2.952 6.408,2.952 3.744,0 6.552,-2.952 2.808,-3.024 2.808,-7.704 0,-4.68 -2.736,-7.848 -2.736,-3.168 -6.552,-3.168 -3.816,0 -6.48,3.168 -2.592,3.096 -2.592,7.848 z" />
        <path
           id="path842"
           style=""
           d="m 131.1615,66.384 q -6.552,6.192 -15.408,6.192 -8.784,0 -14.544,-5.4 -5.760002,-5.472 -5.760002,-14.616 0,-9.144 5.832002,-14.544 5.904,-5.4 13.896,-5.4 7.992,0 13.536,4.824 5.616,4.824 5.616,13.248 v 5.76 h -28.224 q 0.504,3.168 3.312,5.184 2.808,2.016 6.336,2.016 5.688,0 9.36,-3.816 z m -7.776,-17.64 q -0.36,-3.456 -2.592,-5.328 -2.232,-1.872 -5.472,-1.872 -3.168,0 -5.832,1.944 -2.664,1.944 -3.096,5.256 z" />
        <path
           id="path844"
           style=""
           d="M 152.127,50.4 V 72 h -10.8 V 33.264 h 10.8 v 4.32 q 4.896,-4.968 11.016,-4.968 6.12,0 10.224,4.32 4.176,4.32 4.176,11.52 V 72 h -10.8 V 50.112 q 0,-8.928 -6.552,-8.928 -3.24,0 -5.688,2.376 -2.376,2.304 -2.376,6.84 z" />
        <path
           id="path846"
           style=""
           d="m 202.07137,72.576 q -6.84,0 -12.24,-5.832 -5.4,-5.832 -5.4,-14.472 0,-8.64 5.256,-14.112 5.256,-5.544 12.312,-5.544 7.056,0 11.52,4.968 V 18.576 h 10.8 V 72 h -10.8 v -5.112 q -4.536,5.688 -11.448,5.688 z m -6.768,-19.872 q 0,4.68 2.808,7.704 2.808,2.952 6.552,2.952 3.744,0 6.336,-2.952 2.664,-3.024 2.664,-7.704 0,-4.752 -2.664,-7.848 -2.592,-3.168 -6.408,-3.168 -3.816,0 -6.552,3.168 -2.736,3.168 -2.736,7.848 z" />
        <path
           id="path848"
           style=""
           d="m 244.62449,72 h -10.8 V 33.264 h 10.8 z m -9.936,-43.632 q -1.8,-1.872 -1.8,-4.536 0,-2.664 1.8,-4.464 1.872,-1.872 4.536,-1.872 2.664,0 4.464,1.872 1.872,1.8 1.872,4.464 0,2.664 -1.872,4.536 -1.8,1.8 -4.464,1.8 -2.664,0 -4.536,-1.8 z" />
        <path
           id="path850"
           style=""
           d="M 264.99824,50.4 V 72 h -10.8 V 33.264 h 10.8 v 4.32 q 4.896,-4.968 11.016,-4.968 6.12,0 10.224,4.32 4.176,4.32 4.176,11.52 V 72 h -10.8 V 50.112 q 0,-8.928 -6.552,-8.928 -3.24,0 -5.688,2.376 -2.376,2.304 -2.376,6.84 z" />
        <path
           id="path852"
           style=""
           d="m 326.60662,51.84 q 0,-4.68 -2.592,-7.344 -2.592,-2.664 -6.408,-2.664 -3.816,0 -6.624,2.664 -2.736,2.664 -2.736,7.272 0,4.608 2.664,7.488 2.736,2.808 6.624,2.808 3.888,0 6.48,-2.808 2.592,-2.808 2.592,-7.416 z m 1.512,13.608 q -5.112,5.688 -12.744,5.688 -7.56,0 -12.816,-5.112 -5.184,-5.184 -5.184,-13.752 0,-8.64 5.328,-14.112 5.4,-5.544 12.312,-5.544 6.912,0 11.448,5.688 v -5.112 h 10.8 V 66.96 q 0,5.184 -1.8,9.216 -1.8,4.032 -4.824,6.336 -5.976,4.752 -14.112,4.752 -4.32,0 -8.856,-1.44 -4.464,-1.368 -7.848,-3.96 l 4.176,-8.136 q 5.328,4.032 11.232,4.032 5.976,0 9.432,-2.952 3.456,-2.952 3.456,-9.36 z" />
      </g>
      <path
         id="circle12"
         d="m 37.1,20 a 8,8 0 0 1 -8,8 8,8 0 0 1 -8,-8 8,8 0 0 1 8,-8 8,8 0 0 1 8,8 z"
         style="fill:#e6e6e6" />
      <path
         id="circle14"
         d="m 37.1,100 a 8,8 0 0 1 -8,8 8,8 0 0 1 -8,-8 8,8 0 0 1 8,-8 8,8 0 0 1 8,8 z"
         style="fill:#e6e6e6" />
      <path
         id="circle16"
         d="m 37.1,180 a 8,8 0 0 1 -8,8 8,8 0 0 1 -8,-8 8,8 0 0 1 8,-8 8,8 0 0 1 8,8 z"
         style="fill:#e6e6e6" />
      <path
         id="circle18"
         d="m 117.1,20 a 8,8 0 0 1 -8,8 8,8 0 0 1 -8,-8 8,8 0 0 1 8,-8 8,8 0 0 1 8,8 z"
         style="fill:#e6e6e6" />
      <path
         id="circle20"
         d="m 117.1,100 a 8,8 0 0 1 -8,8 8,8 0 0 1 -8,-8 8,8 0 0 1 8,-8 8,8 0 0 1 8,8 z"
         style="fill:#e6e6e6" />
      <path
         id="circle22"
         d="m 117.1,180 a 8,8 0 0 1 -8,8 8,8 0 0 1 -8,-8 8,8 0 0 1 8,-8 8,8 0 0 1 8,8 z"
         style="fill:#e6e6e6" />
      <path
         id="circle24"
         d="m 197.10001,20 a 8,8 0 0 1 -8,8 8,8 0 0 1 -8,-8 8,8 0 0 1 8,-8 8,8 0 0 1 8,8 z"
         style="fill:#e6e6e6" />
      <path
         id="circle26"
         d="m 197.10001,100 a 8,8 0 0 1 -8,8 8,8 0 0 1 -8,-8 8,8 0 0 1 8,-8 8,8 0 0 1 8,8 z"
         style="fill:#e6e6e6" />
      <path
         id="circle28"
         d="m 197.10001,180 a 8,8 0 0 1 -8,8 8,8 0 0 1 -8,-8 8,8 0 0 1 8,-8 8,8 0 0 1 8,8 z"
         style="fill:#e6e6e6" />
      <path
         id="polygon30"
         d="m 189,44.84 v 55.42 L 80,100 V 20 h 109 z"
         style="opacity:0.9;mix-blend-mode:multiply;fill:none;stroke:#5dc5cc;stroke-width:16px;stroke-linejoin:bevel" />
      <path
         id="polygon32"
         d="M 29,180 147.4,20 H 29 Z"
         style="opacity:0.9;mix-blend-mode:multiply;fill:none;stroke:#c21889;stroke-width:16px;stroke-linejoin:bevel" />
      <path
         id="ellipse34"
         d="m 145.3,116.59 a 58,63 0 0 1 -57.999997,63 58,63 0 0 1 -58,-63 58,63 0 0 1 58,-63.000004 A 58,63 0 0 1 145.3,116.59 Z"
         style="opacity:0.75;mix-blend-mode:multiply;fill:none;stroke:#2d8b8c;stroke-width:16px;stroke-linejoin:bevel" />
    </g>
  </g>
</svg>
